<mxfile host="65bd71144e">
    <diagram id="KmLitoXm8qKMGV8ANQ3f" name="Page-1">
        <mxGraphModel dx="939" dy="846" grid="1" gridSize="10" guides="1" tooltips="1" connect="1" arrows="1" fold="1" page="1" pageScale="1" pageWidth="850" pageHeight="1100" math="0" shadow="0">
            <root>
                <mxCell id="0"/>
                <mxCell id="1" parent="0"/>
                <mxCell id="63" value="" style="rounded=0;whiteSpace=wrap;html=1;align=left;fillColor=none;fontColor=#ffffff;strokeColor=#000000;" vertex="1" parent="1">
                    <mxGeometry x="30" y="67.81" width="110" height="108.75" as="geometry"/>
                </mxCell>
                <mxCell id="64" value="" style="rounded=0;whiteSpace=wrap;html=1;fillColor=none;fontColor=#000000;strokeColor=#000000;fontSize=9;" vertex="1" parent="1">
                    <mxGeometry x="210" y="50" width="480" height="140" as="geometry"/>
                </mxCell>
                <mxCell id="65" style="edgeStyle=none;html=1;exitX=1;exitY=0.5;exitDx=0;exitDy=0;entryX=0;entryY=0.5;entryDx=0;entryDy=0;strokeColor=#000000;fontSize=9;" edge="1" parent="1" source="68">
                    <mxGeometry relative="1" as="geometry">
                        <mxPoint x="238.75" y="146.56000000000006" as="targetPoint"/>
                    </mxGeometry>
                </mxCell>
                <mxCell id="66" style="edgeStyle=none;html=1;exitX=1;exitY=0.75;exitDx=0;exitDy=0;entryX=0;entryY=0.75;entryDx=0;entryDy=0;strokeColor=#000000;" edge="1" parent="1" source="68">
                    <mxGeometry relative="1" as="geometry">
                        <mxPoint x="238.75" y="155.93500000000006" as="targetPoint"/>
                    </mxGeometry>
                </mxCell>
                <mxCell id="67" style="edgeStyle=none;html=1;exitX=1;exitY=0.25;exitDx=0;exitDy=0;entryX=0;entryY=0.25;entryDx=0;entryDy=0;strokeColor=#000000;" edge="1" parent="1" source="68">
                    <mxGeometry relative="1" as="geometry">
                        <mxPoint x="238.75" y="137.18500000000006" as="targetPoint"/>
                    </mxGeometry>
                </mxCell>
                <mxCell id="68" value="" style="rounded=0;whiteSpace=wrap;html=1;align=left;fillColor=none;fontColor=#ffffff;strokeColor=#000000;" vertex="1" parent="1">
                    <mxGeometry x="40" y="127.81" width="90" height="37.5" as="geometry"/>
                </mxCell>
                <mxCell id="70" value="Queries" style="text;html=1;strokeColor=none;fillColor=none;align=center;verticalAlign=middle;whiteSpace=wrap;rounded=0;fontColor=#000000;" vertex="1" parent="1">
                    <mxGeometry x="40" y="131.56" width="60" height="30" as="geometry"/>
                </mxCell>
                <mxCell id="84" value="At Application Compile Time" style="text;html=1;strokeColor=none;fillColor=none;align=center;verticalAlign=middle;whiteSpace=wrap;rounded=0;fontColor=#000000;" vertex="1" parent="1">
                    <mxGeometry x="8.75999999999999" y="197.81" width="152.5" height="30" as="geometry"/>
                </mxCell>
                <mxCell id="85" value="Queries" style="text;html=1;strokeColor=none;fillColor=none;align=center;verticalAlign=middle;whiteSpace=wrap;rounded=0;fontSize=8;fontStyle=2;fontColor=#000000;" vertex="1" parent="1">
                    <mxGeometry x="140" y="117.81" width="50" height="21.25" as="geometry"/>
                </mxCell>
                <mxCell id="89" value="Typical Embedded Database" style="text;html=1;strokeColor=none;fillColor=none;align=center;verticalAlign=middle;whiteSpace=wrap;rounded=0;fontSize=13;fontStyle=1;fontColor=#000000;" vertex="1" parent="1">
                    <mxGeometry x="20" y="17.810000000000002" width="680" height="30" as="geometry"/>
                </mxCell>
                <mxCell id="96" value="Logic from general purpose language can be embedded within queries" style="text;html=1;strokeColor=none;fillColor=none;align=center;verticalAlign=middle;whiteSpace=wrap;rounded=0;fontColor=#006600;fontSize=8;fontStyle=2" vertex="1" parent="1">
                    <mxGeometry x="31.880000000000003" y="97.81" width="106.25" height="20" as="geometry"/>
                </mxCell>
                <mxCell id="98" value="Application Code" style="text;html=1;strokeColor=none;fillColor=none;align=center;verticalAlign=middle;whiteSpace=wrap;rounded=0;fontColor=#000000;" vertex="1" parent="1">
                    <mxGeometry x="30" y="67.81" width="110" height="30" as="geometry"/>
                </mxCell>
                <mxCell id="99" value="Lib" style="rounded=0;whiteSpace=wrap;html=1;align=center;fillColor=none;fontColor=#000000;strokeColor=#000000;" vertex="1" parent="1">
                    <mxGeometry x="100" y="127.81" width="30" height="37.5" as="geometry"/>
                </mxCell>
                <mxCell id="101" value="Application" style="text;html=1;strokeColor=none;fillColor=none;align=center;verticalAlign=middle;whiteSpace=wrap;rounded=0;fontColor=#000000;" vertex="1" parent="1">
                    <mxGeometry x="238.75" y="51.25" width="75.62" height="16.56" as="geometry"/>
                </mxCell>
                <mxCell id="103" value="Wrapper" style="rounded=0;whiteSpace=wrap;html=1;fillColor=none;fontColor=#000000;strokeColor=#000000;fontSize=9;" vertex="1" parent="1">
                    <mxGeometry x="238.75" y="71.56" width="51.25" height="100" as="geometry"/>
                </mxCell>
                <mxCell id="104" value="Database Engine" style="text;html=1;strokeColor=none;fillColor=none;align=center;verticalAlign=middle;whiteSpace=wrap;rounded=0;fontColor=#000000;" vertex="1" parent="1">
                    <mxGeometry x="416.88" y="50" width="133.12" height="30" as="geometry"/>
                </mxCell>
                <mxCell id="112" style="edgeStyle=none;html=1;exitX=1;exitY=0.75;exitDx=0;exitDy=0;entryX=0;entryY=0.5;entryDx=0;entryDy=0;fontColor=#000000;" edge="1" parent="1" source="105" target="110">
                    <mxGeometry relative="1" as="geometry"/>
                </mxCell>
                <mxCell id="105" value="Deserialize" style="rounded=0;whiteSpace=wrap;html=1;fillColor=none;fontColor=#000000;strokeColor=#000000;fontSize=9;horizontal=0;" vertex="1" parent="1">
                    <mxGeometry x="348.75" y="121.56" width="20" height="50" as="geometry"/>
                </mxCell>
                <mxCell id="107" style="edgeStyle=none;html=1;exitX=1;exitY=0.25;exitDx=0;exitDy=0;entryX=0;entryY=0.25;entryDx=0;entryDy=0;fontColor=#000000;" edge="1" parent="1" source="106" target="105">
                    <mxGeometry relative="1" as="geometry"/>
                </mxCell>
                <mxCell id="108" style="edgeStyle=none;html=1;exitX=1;exitY=0.5;exitDx=0;exitDy=0;entryX=0;entryY=0.5;entryDx=0;entryDy=0;fontColor=#000000;" edge="1" parent="1" source="106" target="105">
                    <mxGeometry relative="1" as="geometry"/>
                </mxCell>
                <mxCell id="109" style="edgeStyle=none;html=1;exitX=1;exitY=0.75;exitDx=0;exitDy=0;entryX=0;entryY=0.75;entryDx=0;entryDy=0;fontColor=#000000;" edge="1" parent="1" source="106" target="105">
                    <mxGeometry relative="1" as="geometry"/>
                </mxCell>
                <mxCell id="106" value="Serialize" style="rounded=0;whiteSpace=wrap;html=1;fillColor=none;fontColor=#000000;strokeColor=#000000;fontSize=9;horizontal=0;" vertex="1" parent="1">
                    <mxGeometry x="290" y="121.56" width="20" height="50" as="geometry"/>
                </mxCell>
                <mxCell id="119" style="edgeStyle=none;html=1;exitX=1;exitY=0.5;exitDx=0;exitDy=0;entryX=0;entryY=0.5;entryDx=0;entryDy=0;fontColor=#000000;" edge="1" parent="1" source="110" target="111">
                    <mxGeometry relative="1" as="geometry"/>
                </mxCell>
                <mxCell id="110" value="Semantic Analysis" style="rounded=0;whiteSpace=wrap;html=1;strokeColor=#000000;fontSize=9;fillColor=none;fontColor=#000000;" vertex="1" parent="1">
                    <mxGeometry x="398.75" y="143" width="51.25" height="31.56" as="geometry"/>
                </mxCell>
                <mxCell id="121" style="edgeStyle=none;html=1;exitX=1;exitY=0.5;exitDx=0;exitDy=0;entryX=0;entryY=0.5;entryDx=0;entryDy=0;fontColor=#000000;" edge="1" parent="1" source="111" target="120">
                    <mxGeometry relative="1" as="geometry"/>
                </mxCell>
                <mxCell id="111" value="Logical&lt;br&gt;Plan" style="rounded=0;whiteSpace=wrap;html=1;strokeColor=#000000;fontSize=9;fillColor=none;fontColor=#000000;" vertex="1" parent="1">
                    <mxGeometry x="473.75" y="143" width="56.25" height="31.56" as="geometry"/>
                </mxCell>
                <mxCell id="125" style="edgeStyle=none;html=1;exitX=0;exitY=0.5;exitDx=0;exitDy=0;entryX=1;entryY=0.5;entryDx=0;entryDy=0;fontColor=#000000;" edge="1" parent="1" source="113" target="115">
                    <mxGeometry relative="1" as="geometry"/>
                </mxCell>
                <mxCell id="113" value="Data Store" style="rounded=0;whiteSpace=wrap;html=1;strokeColor=#000000;fontSize=9;fillColor=none;fontColor=#000000;" vertex="1" parent="1">
                    <mxGeometry x="580" y="76.56" width="100" height="40" as="geometry"/>
                </mxCell>
                <mxCell id="114" value="Deserialize" style="rounded=0;whiteSpace=wrap;html=1;fillColor=none;fontColor=#000000;strokeColor=#000000;fontSize=9;horizontal=0;" vertex="1" parent="1">
                    <mxGeometry x="290" y="71.56" width="20" height="50" as="geometry"/>
                </mxCell>
                <mxCell id="116" style="edgeStyle=none;html=1;exitX=0;exitY=0.75;exitDx=0;exitDy=0;entryX=1;entryY=0.75;entryDx=0;entryDy=0;fontColor=#000000;" edge="1" parent="1" source="115" target="114">
                    <mxGeometry relative="1" as="geometry"/>
                </mxCell>
                <mxCell id="117" style="edgeStyle=none;html=1;exitX=0;exitY=0.5;exitDx=0;exitDy=0;entryX=1;entryY=0.5;entryDx=0;entryDy=0;fontColor=#000000;" edge="1" parent="1" source="115" target="114">
                    <mxGeometry relative="1" as="geometry"/>
                </mxCell>
                <mxCell id="118" style="edgeStyle=none;html=1;exitX=0;exitY=0.25;exitDx=0;exitDy=0;entryX=1;entryY=0.25;entryDx=0;entryDy=0;fontColor=#000000;" edge="1" parent="1" source="115" target="114">
                    <mxGeometry relative="1" as="geometry"/>
                </mxCell>
                <mxCell id="115" value="Serialize" style="rounded=0;whiteSpace=wrap;html=1;fillColor=none;fontColor=#000000;strokeColor=#000000;fontSize=9;horizontal=0;" vertex="1" parent="1">
                    <mxGeometry x="348.75" y="71.56" width="20" height="50" as="geometry"/>
                </mxCell>
                <mxCell id="123" style="edgeStyle=none;html=1;exitX=1;exitY=0.5;exitDx=0;exitDy=0;entryX=0;entryY=0.5;entryDx=0;entryDy=0;fontColor=#000000;" edge="1" parent="1" source="120" target="122">
                    <mxGeometry relative="1" as="geometry"/>
                </mxCell>
                <mxCell id="120" value="Physical&lt;br&gt;Plan" style="rounded=0;whiteSpace=wrap;html=1;strokeColor=#000000;fontSize=9;fillColor=none;fontColor=#000000;" vertex="1" parent="1">
                    <mxGeometry x="548.13" y="143" width="61.87" height="31.56" as="geometry"/>
                </mxCell>
                <mxCell id="124" style="edgeStyle=none;html=1;exitX=0.5;exitY=0;exitDx=0;exitDy=0;entryX=0.75;entryY=1;entryDx=0;entryDy=0;fontColor=#000000;" edge="1" parent="1" source="122" target="113">
                    <mxGeometry relative="1" as="geometry"/>
                </mxCell>
                <mxCell id="122" value="Kernel" style="rounded=0;whiteSpace=wrap;html=1;strokeColor=#000000;fontSize=9;fillColor=none;fontColor=#000000;" vertex="1" parent="1">
                    <mxGeometry x="630" y="143" width="50" height="31.56" as="geometry"/>
                </mxCell>
                <mxCell id="126" value="variety of performant implementations" style="text;html=1;strokeColor=none;fillColor=none;align=center;verticalAlign=middle;whiteSpace=wrap;rounded=0;fontColor=#006600;fontSize=8;fontStyle=2" vertex="1" parent="1">
                    <mxGeometry x="492.03" y="167.81" width="174.06" height="30" as="geometry"/>
                </mxCell>
                <mxCell id="127" value="cannot rely on correctly structured queries" style="text;html=1;strokeColor=none;fillColor=none;align=center;verticalAlign=middle;whiteSpace=wrap;rounded=0;fontColor=#FF0000;fontSize=8;fontStyle=2" vertex="1" parent="1">
                    <mxGeometry x="379" y="117.81" width="91.25" height="22.19" as="geometry"/>
                </mxCell>
                <mxCell id="128" value="Typically support multiple languages for applications, so provide string interface called over C-ABI." style="text;html=1;strokeColor=none;fillColor=none;align=center;verticalAlign=middle;whiteSpace=wrap;rounded=0;fontColor=#000000;fontSize=8;fontStyle=2" vertex="1" parent="1">
                    <mxGeometry x="330" y="197.81" width="200" height="22.19" as="geometry"/>
                </mxCell>
                <mxCell id="129" value="Cannot take advantage of language specifics (e.g. data type representations)" style="text;html=1;strokeColor=none;fillColor=none;align=center;verticalAlign=middle;whiteSpace=wrap;rounded=0;fontColor=#FF0000;fontSize=8;fontStyle=2" vertex="1" parent="1">
                    <mxGeometry x="330" y="220" width="200" height="22.19" as="geometry"/>
                </mxCell>
                <mxCell id="132" value="queries only known at runtime, no limit" style="text;html=1;strokeColor=none;fillColor=none;align=center;verticalAlign=middle;whiteSpace=wrap;rounded=0;fontColor=#FF0000;fontSize=8;fontStyle=2" vertex="1" parent="1">
                    <mxGeometry x="488.75" y="116.87" width="91.25" height="22.19" as="geometry"/>
                </mxCell>
                <mxCell id="134" value="" style="endArrow=none;html=1;fontColor=#000000;dashed=1;strokeColor=#999999;" edge="1" parent="1">
                    <mxGeometry width="50" height="50" relative="1" as="geometry">
                        <mxPoint x="329.52" y="50" as="sourcePoint"/>
                        <mxPoint x="329.52" y="190" as="targetPoint"/>
                    </mxGeometry>
                </mxCell>
                <mxCell id="135" value="" style="shape=curlyBracket;whiteSpace=wrap;html=1;rounded=1;flipH=1;labelPosition=right;verticalLabelPosition=middle;align=left;verticalAlign=middle;strokeColor=#000000;rotation=90;" vertex="1" parent="1">
                    <mxGeometry x="75" y="127.81" width="20" height="130.62" as="geometry"/>
                </mxCell>
            </root>
        </mxGraphModel>
    </diagram>
</mxfile>